<svg version="1.1" xmlns="http://www.w3.org/2000/svg" xmlns:xlink="http://www.w3.org/1999/xlink" x="0px" y="0px"
     viewBox="0 0 1000 334.4" width="@Width" fill="#00a3dd" >
	<g>
		<g>
			<path d="M85,260.3c-16.7,1-34.7,0.8-54.1-0.8C11.5,258,0,245.6,0,222.4V0h29c6.6,0,12.4,2.5,17.4,7.6
			c5,5,7.6,11.1,7.6,18.1v34h31v10.6c0,7.6-2.5,13.7-7.6,18.6c-5,4.8-11.1,7.2-18.2,7.2H54v112c0,8.6,5,12.9,15.1,12.9H85V260.3z" />
			<path d="M210.6,158.9c-7,3.6-16.9,6.8-29.5,9.8c-11.6,2.5-17.4,3.8-17.4,3.8c-9.1,2.5-15.7,5.8-19.7,9.8
			c-3.5,5.6-5.3,11.1-5.3,16.7c0,7.6,2.3,13.6,6.8,18.1c4.6,4.1,11.1,6.1,19.7,6.1c14.1,0,25.2-4.1,33.3-12.1
			c8.1-8.1,12.1-19.1,12.1-33.2V158.9L210.6,158.9z M222.7,251.9c-10.6,5.5-21.8,9-33.6,10.3c-11.9,1.2-22.3,1.9-31.4,1.9
			c-18.1,0-34-4.9-47.6-14.8c-13.6-9.8-20.4-26.1-20.4-48.8c0-21.2,6.2-36.3,18.5-45.4c12.3-9,28.2-15.1,47.3-18.1
			c2.5,0,5.5-0.4,9.1-1.2c3.5-0.7,7.6-1.4,12.1-1.9c22.2-3,33.3-9.6,33.3-19.7c0-7.6-3.9-12.5-11.7-14.7c-7.8-2.3-15-3.4-21.6-3.4
			c-7,0-13.4,1-18.9,3c-5.5,2-9.5,5.7-12.1,11.3H94.9c2-15.6,9-28.5,21.2-38.6c13.6-11.6,33.1-17.4,58.2-17.4
			c28.3,0,49.5,4.8,63.5,14.4c14.7,10.1,21.9,24.2,21.9,42.4v68.9c0,20.1-3.7,36-11,47.3C241.5,238.7,232.8,246.9,222.7,251.9z" />
			<path d="M318.9,308.7c0,7-2.5,13.1-7.6,18.1c-5,5-11.1,7.6-18.1,7.6h-25.8V146c0-35.3,10.3-59.4,31.1-72.2
			c20.7-12.8,43.1-19.3,67.3-19.3c12.6,0,25.3,2.4,38.2,7.2c12.9,4.8,23,11.7,30.6,20.8c15.2,19.7,22.7,44.9,22.7,75.7
			c0,31.8-7.6,57.5-22.7,77.2c-15.1,19.2-34.5,28.7-58.2,28.7c-12.7,0-23.7-2.3-33.3-6.8c-10.1-5-18.1-12.9-24.2-23.4V308.7
			L318.9,308.7z M405.1,160.4c0-19.7-3.8-34.8-11.3-45.4c-7.6-10.6-18.4-15.9-32.6-15.9c-13.6,0-24.2,5.3-31.8,15.9
			c-7,9.5-10.6,24.7-10.6,45.4c0,19.2,3.8,33.6,11.4,43.1c7.5,10.6,18.4,15.9,32.5,15.9c13.1,0,23.4-5.3,31-15.9
			C401.3,192.9,405.1,178.5,405.1,160.4z" />
			<path d="M519.3,59L519.3,59v74.1L583.6,59h63.5l-71.9,77.2l72.6,124.1h-63.5l-37.1-68.1
			c-7.6-13.6-14.1-19.4-19.7-17.4c-5.5,2-8.3,5-8.3,9.1v28v48.4h-52.9V0h27.2c7,0,13.1,2.5,18.1,7.6c5,5,7.6,10.9,7.6,17.4V59z" />
			<path d="M769.6,198.2h37.8c-5.5,21.2-16.1,37.3-31.8,48.4c-15.6,11.6-35.3,17.4-59,17.4c-28.7,0-51.2-9.4-67.3-28
			c-16.1-18.1-24.2-44.1-24.2-77.9c0-32.3,7.8-57.5,23.4-75.7c16.1-18.7,38.6-28,67.3-28c30.3,0,53.7,9.1,70.4,27.3
			c16.1,18.7,24.2,44.6,24.2,77.9c0,2,0,3.8,0,5.3c0,1.5,0,2.5,0,3c0,2.5-0.3,4.3-0.8,5.3H678.8c0.5,15.6,4.3,27.2,11.4,34.8
			c6.5,8.1,16.4,12.1,29.5,12.1c8.6,0,15.9-1.7,22-5.3c1.5-0.5,2.9-1.4,4.1-2.6c1.3-1.3,2.7-2.6,4.2-4.2c0.5-1.5,2.4-3.5,5.6-6
			C758.9,199.5,763.6,198.2,769.6,198.2L769.6,198.2z M678.8,139.2h77.1c-1-13.6-4.5-23.7-10.6-30.3c-6.5-7-15.9-10.6-28-10.6
			c-11.1,0-20.2,3.6-27.2,10.6C683.1,116,679.3,126.1,678.8,139.2z" />
			<path d="M945.5,59l-48.2,142.2c-13.4-40.1-33-97.8-48-142.2h-54.5c6.6,19.1,48.9,141,49.9,143.9
			c1.1,3,2.1,6.1,3.2,9.2c3.7,10.5,10.7,24.1,16.3,44.6c6.4,23.5,4.2,33.1-22.8,33.1h-14.4v43.1h22c42.8,0,49.7-7.8,67.1-44.8
			c14.6-31,25-59.7,30.7-76.1c0.9-2.7,42.2-121.3,53.2-153H945.5z" />
		</g>
	</g>
</svg>